<?xml version="1.0" encoding="UTF-8" standalone="no"?>
<svg
   width="461.62317"
   height="416.69937"
   version="1.1"
   id="svg1"
   sodipodi:docname="Bluesky_Logo.svg"
   inkscape:version="1.3.2 (091e20e, 2023-11-25, custom)"
   xmlns:inkscape="http://www.inkscape.org/namespaces/inkscape"
   xmlns:sodipodi="http://sodipodi.sourceforge.net/DTD/sodipodi-0.dtd"
   xmlns="http://www.w3.org/2000/svg"
   xmlns:svg="http://www.w3.org/2000/svg">
  <defs
     id="defs1" />
  <sodipodi:namedview
     id="namedview1"
     pagecolor="#ffffff"
     bordercolor="#000000"
     borderopacity="0.25"
     inkscape:showpageshadow="2"
     inkscape:pageopacity="0.0"
     inkscape:pagecheckerboard="0"
     inkscape:deskcolor="#d1d1d1"
     inkscape:zoom="2.2132075"
     inkscape:cx="278.10316"
     inkscape:cy="236.98636"
     inkscape:window-width="2560"
     inkscape:window-height="1369"
     inkscape:window-x="1432"
     inkscape:window-y="254"
     inkscape:window-maximized="1"
     inkscape:current-layer="svg1" />
  <path
     d="M 100.06292,28.048995 C 152.9869,68.782966 209.91267,151.37449 230.81293,195.69791 251.71479,151.37775 308.63737,68.782146 361.56295,28.048995 c 38.18716,-29.3920073 100.06022,-52.133871 100.06022,20.231941 0,14.45244 -8.08233,121.407974 -12.8227,138.771784 -16.47746,60.36863 -76.52076,75.76595 -129.93025,66.44678 93.35877,16.28999 117.10834,70.24837 65.81833,124.20674 -97.40987,102.47751 -140.0063,-25.71198 -150.92601,-58.5588 -2.00089,-6.02161 -2.93719,-8.83857 -2.95096,-6.44322 -0.0138,-2.39544 -0.95006,0.42161 -2.95095,6.44322 -10.91494,32.84682 -53.51057,161.03957 -150.926011,58.5588 C 25.643813,323.74787 49.392599,269.78623 142.75294,253.4995 89.341865,262.81867 29.297778,247.42126 12.822702,187.05272 8.082178,169.68728 0,62.731746 0,48.280936 0,-24.084876 61.874649,-1.3430123 100.06022,28.048995 Z"
     fill="#1185fe"
     id="path1"
     style="stroke-width:0.805871" />
</svg>
